<?xml version="1.0" standalone="no"?>
<!DOCTYPE svg PUBLIC "-//W3C//DTD SVG 20010904//EN"
 "http://www.w3.org/TR/2001/REC-SVG-20010904/DTD/svg10.dtd">
<svg version="1.0" xmlns="http://www.w3.org/2000/svg"
 width="520.000000pt" height="502.000000pt" viewBox="0 0 520.000000 502.000000"
 preserveAspectRatio="xMidYMid meet">

<g transform="translate(0.000000,502.000000) scale(0.100000,-0.100000)"
fill="#000000" stroke="none">
<path d="M2381 4909 c-139 -12 -331 -44 -455 -75 -111 -27 -257 -73 -268 -83
-6 -5 846 -1799 923 -1944 l15 -28 77 158 c425 866 873 1809 863 1816 -19 13
-223 77 -314 98 -234 55 -597 80 -841 58z m-209 -170 c31 -17 48 -71 48 -153
0 -127 -32 -176 -115 -176 l-35 0 0 -110 0 -110 -35 0 -35 0 0 280 0 280 76 0
c41 0 84 -5 96 -11z m188 -269 l0 -280 -35 0 -35 0 0 280 0 280 35 0 35 0 0
-280z m270 260 c0 -12 -25 -119 -55 -240 -30 -121 -55 -224 -55 -230 0 -5 22
-10 50 -10 49 0 50 -1 50 -30 l0 -30 -90 0 c-90 0 -90 0 -90 25 0 14 27 129
59 255 l59 230 -54 0 c-51 0 -54 1 -54 25 0 25 1 25 90 25 84 0 90 -1 90 -20z
m240 -10 c0 -16 -25 -125 -55 -242 -30 -117 -55 -216 -55 -220 0 -5 25 -8 55
-8 54 0 55 0 55 -30 l0 -30 -90 0 -90 0 0 38 c0 20 25 133 55 250 30 117 55
215 55 217 0 3 -22 5 -50 5 -47 0 -50 2 -50 25 0 25 1 25 85 25 l85 0 0 -30z
m214 3 c10 -47 86 -511 86 -522 0 -6 -13 -11 -30 -11 -30 0 -32 5 -43 90 -2
11 -17 16 -53 18 l-52 3 -7 -56 c-6 -53 -8 -55 -36 -55 -22 0 -29 5 -29 20 0
20 66 463 76 513 5 24 10 27 44 27 34 0 39 -3 44 -27z"/>
<path d="M2070 4585 l0 -115 30 0 c40 0 50 23 50 115 0 92 -10 115 -50 115
l-30 0 0 -115z"/>
<path d="M3037 4600 c-5 -21 -37 -231 -37 -245 0 -3 18 -5 40 -5 48 0 48 -1
21 165 -12 76 -20 102 -24 85z"/>
<path d="M1655 4302 c-112 -63 -406 -301 -510 -414 -188 -205 -395 -618 -462
-919 -29 -136 -25 -421 11 -604 79 -406 148 -593 291 -783 49 -65 339 -348
483 -472 281 -240 537 -377 815 -437 121 -26 368 -24 503 5 199 43 535 162
734 262 295 147 483 296 611 482 121 177 247 481 303 730 83 370 72 818 -29
1137 -28 89 -172 352 -264 481 -147 208 -526 522 -671 555 -24 6 -28 0 -67
-84 -40 -87 -41 -91 -20 -91 71 0 246 -122 428 -298 159 -153 241 -269 368
-518 127 -250 158 -738 71 -1137 -47 -215 -161 -496 -264 -651 -162 -244 -456
-429 -954 -600 -189 -65 -323 -95 -454 -103 -320 -20 -651 120 -993 417 -127
111 -407 385 -450 440 -114 148 -174 306 -240 629 -97 479 -34 782 260 1261
76 123 240 287 430 431 162 122 179 133 211 126 23 -4 22 0 -24 86 -27 50 -53
92 -58 94 -5 1 -31 -10 -59 -25z"/>
<path d="M3259 3947 c-10 -22 -7 -34 25 -91 42 -76 57 -86 123 -86 69 0 94
-17 116 -75 20 -55 30 -65 68 -65 46 0 59 -27 59 -119 0 -45 5 -91 11 -102 6
-11 30 -29 54 -39 102 -44 173 -155 185 -289 4 -59 14 -100 30 -131 20 -40 22
-49 11 -88 -15 -59 -15 -61 23 -120 32 -51 34 -56 31 -139 l-2 -87 -54 -47
c-46 -41 -53 -51 -52 -82 1 -23 14 -57 34 -89 50 -80 46 -113 -20 -183 l-54
-57 7 -75 c7 -89 -4 -117 -63 -156 -34 -23 -43 -36 -56 -84 -29 -105 -35 -114
-84 -135 -83 -35 -88 -39 -117 -99 -35 -74 -43 -81 -127 -109 -52 -17 -74 -30
-95 -57 -73 -96 -73 -96 -155 -104 -66 -6 -82 -12 -124 -44 -56 -42 -72 -42
-173 0 -115 49 -235 46 -383 -11 -38 -15 -52 -16 -75 -7 -93 38 -90 38 -148
25 -46 -9 -62 -9 -90 3 -19 8 -122 87 -230 175 -161 134 -199 170 -220 212
-37 74 -65 98 -112 98 -55 0 -82 25 -89 80 -8 63 -16 74 -83 120 -74 50 -94
86 -87 152 7 59 -2 86 -50 145 -33 40 -38 54 -44 120 -6 63 -13 82 -38 114
-27 33 -31 46 -31 99 0 64 16 141 51 244 16 46 18 71 13 115 -11 81 -7 99 26
149 25 38 30 55 30 108 0 35 5 74 11 87 6 13 44 54 85 91 63 57 75 73 81 108
7 45 33 78 61 78 30 0 52 33 62 95 12 76 21 85 85 85 66 0 92 19 151 112 29
45 56 74 78 85 31 14 33 18 24 39 -6 13 -15 24 -20 24 -18 0 -176 -84 -253
-135 -232 -152 -396 -351 -478 -580 -34 -95 -73 -278 -86 -397 -52 -477 98
-1023 341 -1243 29 -27 159 -118 288 -203 403 -266 442 -282 732 -289 203 -6
451 8 593 33 390 68 635 274 855 719 87 175 164 371 181 453 23 121 -10 362
-101 732 -51 207 -83 307 -126 390 -95 183 -314 395 -536 520 l-58 32 -11 -25z"/>
<path d="M1873 3678 c-62 -44 -69 -114 -18 -182 33 -43 39 -46 81 -46 78 0
134 44 134 105 0 38 -8 48 -44 66 -16 8 -37 28 -46 44 -21 39 -63 44 -107 13z
m91 -4 c9 -24 2 -26 -12 -4 -7 11 -8 20 -3 20 5 0 12 -7 15 -16z m56 -69 c14
-8 21 -14 15 -14 -5 0 -21 6 -35 14 -14 8 -20 14 -15 14 6 0 21 -6 35 -14z
m-160 -90 c0 -5 -5 -3 -10 5 -5 8 -10 20 -10 25 0 6 5 3 10 -5 5 -8 10 -19 10
-25z m183 -10 c-7 -19 -55 -45 -80 -44 -10 0 -4 5 14 12 18 7 40 20 50 30 21
21 24 21 16 2z m-114 -41 c14 -12 -19 -1 -35 12 -18 14 -18 14 6 3 14 -6 27
-13 29 -15z"/>
<path d="M3377 3574 c-15 -15 -7 -32 13 -27 13 4 26 -1 36 -13 14 -18 14 -17
12 11 -2 24 -8 31 -28 33 -14 2 -29 0 -33 -4z"/>
<path d="M3240 3525 c-7 -9 -10 -18 -6 -22 7 -8 56 17 56 29 0 14 -37 9 -50
-7z"/>
<path d="M1671 3434 c-39 -33 -43 -84 -9 -108 12 -9 29 -16 36 -16 32 0 85 35
99 66 15 30 15 35 -1 58 -23 36 -82 36 -125 0z"/>
<path d="M3044 3397 c108 -68 146 -179 96 -277 -34 -67 -125 -118 -186 -105
-16 4 -38 9 -49 11 -16 4 -14 2 5 -10 94 -56 229 -8 284 101 53 105 -17 251
-135 283 -28 7 -31 7 -15 -3z"/>
<path d="M2035 3374 c-33 -8 -63 -18 -67 -22 -4 -4 -5 -38 -1 -75 6 -66 6 -67
35 -67 16 0 47 9 68 20 l40 20 0 70 c0 39 -3 70 -7 69 -5 0 -35 -7 -68 -15z"/>
<path d="M3535 3308 c-26 -15 -35 -28 -35 -54 0 -46 71 -72 104 -38 45 45 -14
123 -69 92z m40 -47 c7 -12 -12 -24 -25 -16 -11 7 -4 25 10 25 5 0 11 -4 15
-9z"/>
<path d="M1475 3281 c-69 -17 -107 -63 -113 -136 -3 -35 1 -62 12 -83 25 -48
35 -46 18 2 -15 42 -15 47 4 93 25 61 70 93 131 93 52 0 79 -12 112 -48 l23
-27 -19 35 c-31 56 -103 87 -168 71z"/>
<path d="M1984 3105 c-46 -70 74 -178 129 -117 27 30 21 70 -17 108 -43 43
-87 46 -112 9z"/>
<path d="M3472 3109 c-66 -33 -97 -87 -97 -168 0 -54 6 -75 28 -112 47 -79 92
-109 165 -109 49 0 131 39 163 77 53 63 61 171 19 240 -51 84 -186 119 -278
72z m156 -21 c9 -9 29 -18 43 -22 35 -8 57 -43 64 -102 5 -43 2 -56 -25 -101
-26 -45 -35 -53 -60 -53 -36 0 -37 11 -9 50 17 22 20 37 16 67 -8 47 -40 77
-68 63 -13 -7 -24 -7 -38 2 -17 10 -25 9 -50 -10 -43 -31 -55 -29 -47 11 4 17
9 46 12 63 4 19 15 36 27 43 29 14 113 8 135 -11z m-193 -108 c3 -5 -1 -10
-10 -10 -9 0 -13 5 -10 10 3 6 8 10 10 10 2 0 7 -4 10 -10z m156 -33 c-1 -12
-15 -9 -19 4 -3 6 1 10 8 8 6 -3 11 -8 11 -12z m-131 -27 c0 -5 -4 -10 -10
-10 -5 0 -10 5 -10 10 0 6 5 10 10 10 6 0 10 -4 10 -10z m30 -65 c0 -8 -7 -15
-15 -15 -8 0 -15 7 -15 15 0 8 7 15 15 15 8 0 15 -7 15 -15z m98 -43 c2 -7 -6
-12 -17 -12 -21 0 -27 11 -14 24 9 9 26 2 31 -12z"/>
<path d="M3557 3083 c-12 -11 -8 -23 8 -23 8 0 15 7 15 15 0 16 -12 20 -23 8z"/>
<path d="M3675 2989 c-10 -15 3 -25 16 -12 7 7 7 13 1 17 -6 3 -14 1 -17 -5z"/>
<path d="M1554 3044 c-72 -38 -103 -72 -120 -131 -17 -58 -13 -96 17 -153 51
-100 140 -142 249 -119 99 21 170 131 156 242 -17 152 -168 232 -302 161z
m146 -29 c0 -8 -4 -15 -10 -15 -5 0 -10 7 -10 15 0 8 5 15 10 15 6 0 10 -7 10
-15z m-60 -25 c0 -5 -4 -10 -10 -10 -5 0 -10 5 -10 10 0 6 5 10 10 10 6 0 10
-4 10 -10z m131 -17 c26 -3 40 -12 48 -29 16 -35 14 -117 -4 -140 -8 -10 -15
-27 -15 -36 0 -34 -47 -74 -101 -86 -49 -12 -55 -11 -103 14 -70 36 -76 42
-76 75 0 34 12 36 47 9 60 -47 173 3 141 63 -6 12 -6 23 2 32 12 15 2 43 -27
77 -21 23 -7 41 26 33 14 -4 42 -9 62 -12z m-193 -15 c-6 -18 -28 -21 -28 -4
0 9 7 16 16 16 9 0 14 -5 12 -12z m-42 -99 c10 -17 -13 -36 -27 -22 -12 12 -4
33 11 33 5 0 12 -5 16 -11z m142 -11 c-6 -18 -28 -21 -28 -4 0 9 7 16 16 16 9
0 14 -5 12 -12z"/>
<path d="M1785 2880 c-7 -12 2 -30 16 -30 12 0 12 27 0 35 -5 3 -12 1 -16 -5z"/>
<path d="M1692 2739 c2 -6 8 -10 13 -10 5 0 11 4 13 10 2 6 -4 11 -13 11 -9 0
-15 -5 -13 -11z"/>
<path d="M2775 2923 c-28 -7 -42 -20 -48 -43 -4 -17 -3 -18 17 -6 43 28 86 30
137 5 49 -23 70 -52 50 -72 -7 -7 -16 -6 -29 6 -23 21 -71 22 -99 2 -17 -12
-21 -24 -20 -64 2 -32 9 -56 21 -69 23 -27 12 -46 -23 -37 -14 4 -37 8 -51 9
-43 2 -61 72 -36 141 4 11 -2 4 -13 -15 -11 -19 -20 -44 -20 -55 -1 -32 41
-97 78 -122 78 -53 216 -10 260 80 27 55 27 89 0 144 -31 65 -78 96 -147 99
-32 2 -66 0 -77 -3z m51 -170 c-10 -10 -19 5 -10 18 6 11 8 11 12 0 2 -7 1
-15 -2 -18z m124 12 c0 -8 -4 -15 -10 -15 -5 0 -10 7 -10 15 0 8 5 15 10 15 6
0 10 -7 10 -15z m-30 -85 c0 -5 -7 -10 -16 -10 -8 0 -12 5 -9 10 3 6 10 10 16
10 5 0 9 -4 9 -10z m-55 -30 c3 -5 1 -10 -4 -10 -6 0 -11 5 -11 10 0 6 2 10 4
10 3 0 8 -4 11 -10z m-45 -30 c0 -5 -4 -10 -10 -10 -5 0 -10 5 -10 10 0 6 5
10 10 10 6 0 10 -4 10 -10z"/>
<path d="M2360 2911 c0 -6 -8 -10 -17 -10 -10 0 -42 -5 -72 -10 -41 -8 -68 -7
-119 5 -89 21 -126 16 -130 -16 -1 -14 8 -45 20 -70 30 -58 95 -92 177 -93
104 -1 166 56 195 176 6 25 4 27 -24 27 -16 0 -30 -4 -30 -9z"/>
<path d="M2770 2845 c0 -8 5 -15 10 -15 6 0 10 7 10 15 0 8 -4 15 -10 15 -5 0
-10 -7 -10 -15z"/>
<path d="M3162 2824 c-26 -18 -30 -65 -6 -88 23 -24 70 -20 88 6 21 30 20 50
-4 76 -24 26 -47 28 -78 6z m48 -50 c0 -9 -5 -14 -12 -12 -18 6 -21 28 -4 28
9 0 16 -7 16 -16z"/>
<path d="M2700 2735 c0 -9 5 -15 11 -13 6 2 11 8 11 13 0 5 -5 11 -11 13 -6 2
-11 -4 -11 -13z"/>
<path d="M1982 2704 c-7 -4 -24 -23 -37 -44 -17 -27 -36 -41 -67 -51 -41 -13
-43 -16 -46 -58 -6 -87 83 -163 175 -148 66 11 60 26 -8 20 -35 -3 -62 -3 -59
0 3 3 38 8 78 10 112 8 151 44 138 129 -8 51 -35 101 -68 122 -26 17 -87 28
-106 20z m-11 -65 c-13 -17 -20 -37 -17 -46 5 -13 4 -14 -9 -3 -13 11 -11 17
13 50 15 21 29 36 31 34 3 -2 -6 -18 -18 -35z m141 4 c22 -24 39 -100 28 -127
-4 -11 -23 -34 -41 -51 l-33 -30 32 40 c19 23 32 51 32 68 0 38 -23 89 -51
117 -20 19 -21 21 -4 12 11 -6 28 -19 37 -29z m-232 -60 c-8 -3 -21 -12 -27
-21 -11 -14 -13 -14 -13 -1 0 21 10 29 34 28 14 0 16 -2 6 -6z m168 -118 c-3
-3 -9 2 -12 12 -6 14 -5 15 5 6 7 -7 10 -15 7 -18z"/>
<path d="M3312 2660 c-52 -47 -50 -63 13 -103 l44 -28 45 26 c74 43 76 49 26
100 -25 25 -53 45 -65 45 -11 -1 -39 -18 -63 -40z"/>
<path d="M3774 2645 c-19 -29 -12 -59 24 -97 67 -72 161 -23 118 60 -33 64
-111 85 -142 37z"/>
<path d="M2316 2631 c-114 -76 -43 -224 113 -238 66 -6 122 9 151 40 27 28 26
90 -2 134 -44 73 -194 109 -262 64z m176 -31 c50 -33 61 -49 48 -70 -6 -10
-15 -7 -40 14 -26 22 -41 26 -74 24 -28 -2 -41 -8 -42 -18 0 -8 -4 -23 -8 -32
-4 -9 -3 -25 2 -35 7 -13 6 -24 -5 -38 -11 -14 -14 -15 -10 -4 4 12 -7 22 -39
38 -58 29 -61 65 -8 116 49 48 109 49 176 5z m-62 -70 c0 -5 -4 -10 -10 -10
-5 0 -10 5 -10 10 0 6 5 10 10 10 6 0 10 -4 10 -10z m110 -40 c0 -5 -4 -10 -9
-10 -6 0 -13 5 -16 10 -3 6 1 10 9 10 9 0 16 -4 16 -10z m-50 -44 c0 -11 -19
-15 -25 -6 -3 5 1 10 9 10 9 0 16 -2 16 -4z"/>
<path d="M2400 2600 c0 -5 5 -10 11 -10 5 0 7 5 4 10 -3 6 -8 10 -11 10 -2 0
-4 -4 -4 -10z"/>
<path d="M2302 2551 c4 -13 18 -16 19 -4 0 4 -5 9 -11 12 -7 2 -11 -2 -8 -8z"/>
<path d="M1287 2602 c-36 -39 -7 -102 45 -102 25 0 58 36 58 63 0 50 -70 76
-103 39z m58 -32 c3 -6 -1 -13 -10 -16 -19 -8 -30 0 -20 15 8 14 22 14 30 1z"/>
<path d="M3552 2571 l-21 -29 23 -21 c30 -28 52 -27 73 5 17 26 16 27 -11 50
-34 30 -38 30 -64 -5z"/>
<path d="M3125 2515 c-22 -8 -41 -15 -43 -15 -1 0 -16 -21 -32 -47 -24 -37
-30 -58 -30 -100 0 -148 136 -224 264 -149 107 63 124 173 39 267 -51 57 -120
72 -198 44z m128 -46 c28 -15 37 -26 37 -44 0 -29 -2 -30 -41 -9 -25 12 -37
13 -65 4 -38 -13 -57 -39 -44 -60 5 -8 7 -24 4 -35 -3 -13 4 -32 17 -48 12
-16 19 -30 16 -33 -3 -3 -30 -3 -60 1 -45 6 -57 11 -66 31 -15 34 -14 67 5
124 18 56 32 70 83 86 40 13 59 10 114 -17z m-63 -108 c0 -6 -4 -13 -10 -16
-5 -3 -10 1 -10 9 0 9 5 16 10 16 6 0 10 -4 10 -9z m120 -6 c0 -9 -6 -12 -15
-9 -8 4 -15 10 -15 15 0 5 7 9 15 9 8 0 15 -7 15 -15z m-30 -85 c0 -5 -4 -10
-9 -10 -6 0 -13 5 -16 10 -3 6 1 10 9 10 9 0 16 -4 16 -10z m-60 -30 c0 -5 -2
-10 -4 -10 -3 0 -8 5 -11 10 -3 6 -1 10 4 10 6 0 11 -4 11 -10z m-45 -20 c3
-5 1 -10 -4 -10 -6 0 -11 5 -11 10 0 6 2 10 4 10 3 0 8 -4 11 -10z"/>
<path d="M3130 2440 c0 -5 5 -10 10 -10 6 0 10 5 10 10 0 6 -4 10 -10 10 -5 0
-10 -4 -10 -10z"/>
<path d="M3060 2337 c0 -19 16 -31 24 -18 3 5 -1 14 -9 21 -12 10 -15 10 -15
-3z"/>
<path d="M2715 2466 c-29 -29 -31 -43 -9 -74 20 -29 79 -31 94 -3 22 41 5 83
-37 96 -17 4 -29 -1 -48 -19z m55 -41 c0 -8 -7 -15 -15 -15 -8 0 -15 7 -15 15
0 8 7 15 15 15 8 0 15 -7 15 -15z"/>
<path d="M3654 2375 c-16 -21 -35 -35 -48 -35 -32 0 -46 -19 -46 -59 0 -53 32
-98 79 -112 78 -23 171 35 171 108 0 113 -97 174 -156 98z m143 -77 c5 -40 2
-49 -27 -79 l-32 -34 26 33 c34 43 34 88 0 138 l-26 39 27 -26 c19 -19 29 -40
32 -71z m-120 64 c-10 -10 -17 -25 -18 -33 0 -11 -2 -11 -6 -1 -5 12 23 52 35
52 3 0 -2 -8 -11 -18z m50 -178 c-3 -3 -12 -4 -19 -1 -8 3 -5 6 6 6 11 1 17
-2 13 -5z"/>
<path d="M1444 2351 c-55 -51 -55 -132 1 -188 18 -18 38 -33 45 -33 6 0 -2 12
-19 26 -18 14 -36 36 -42 48 -6 11 3 4 20 -16 17 -20 40 -40 51 -43 11 -4 18
-10 15 -15 -3 -4 2 -11 11 -14 30 -11 61 -6 88 15 54 42 71 112 41 169 -16 30
-26 34 -80 31 -19 -1 -41 6 -57 18 -32 26 -49 26 -74 2z m57 -8 c12 -16 12
-17 -1 -7 -8 6 -22 14 -30 17 -13 5 -12 6 1 6 9 1 23 -7 30 -16z m96 -29 c-3
-3 -12 -4 -19 -1 -8 3 -5 6 6 6 11 1 17 -2 13 -5z m63 -79 c0 -46 -51 -105
-89 -104 -25 1 -25 1 6 10 36 10 73 62 73 103 0 14 2 26 5 26 3 0 5 -16 5 -35z"/>
<path d="M2123 2325 c-27 -27 -33 -40 -28 -57 14 -48 69 -62 125 -33 78 40 61
125 -24 125 -30 0 -45 -7 -73 -35z"/>
<path d="M1817 2313 c-4 -3 -7 -30 -7 -59 0 -58 6 -64 71 -64 65 0 93 42 69
104 -9 24 -14 26 -68 26 -32 0 -62 -3 -65 -7z"/>
<path d="M2396 2288 c-9 -12 -16 -30 -16 -40 0 -24 35 -58 60 -58 27 0 60 35
60 63 0 53 -75 77 -104 35z m60 -29 c10 -17 -13 -36 -27 -22 -12 12 -4 33 11
33 5 0 12 -5 16 -11z"/>
<path d="M2883 2280 c-18 -4 -40 -13 -48 -20 -20 -16 -19 -70 1 -99 15 -21 22
-23 67 -17 28 3 54 9 59 14 5 5 8 36 6 68 -3 55 -5 59 -28 61 -14 1 -40 -2
-57 -7z"/>
<path d="M2000 2071 c-77 -25 -138 -81 -173 -159 -24 -55 -19 -108 16 -161 64
-97 215 -95 326 5 80 72 102 167 56 238 -36 54 -163 97 -225 77z m100 -82 c0
-5 -7 -9 -15 -9 -15 0 -20 12 -9 23 8 8 24 -1 24 -14z m-110 -13 c0 -16 -18
-31 -27 -22 -8 8 5 36 17 36 5 0 10 -6 10 -14z m160 -16 c0 -5 -4 -10 -10 -10
-5 0 -10 5 -10 10 0 6 5 10 10 10 6 0 10 -4 10 -10z m-216 -63 c-6 -40 -4 -46
26 -70 37 -32 53 -34 79 -8 11 11 30 21 43 23 15 2 30 17 43 41 22 42 48 45
53 7 2 -14 8 -35 14 -47 9 -17 7 -28 -6 -48 -19 -29 -119 -80 -136 -70 -6 4
-17 1 -26 -5 -23 -20 -92 -6 -125 26 -26 25 -29 34 -29 90 0 52 4 67 22 84 36
33 48 26 42 -23z m271 33 c-3 -5 -11 -10 -16 -10 -6 0 -7 5 -4 10 3 6 11 10
16 10 6 0 7 -4 4 -10z m-165 -70 c0 -5 -7 -10 -16 -10 -8 0 -12 5 -9 10 3 6
10 10 16 10 5 0 9 -4 9 -10z"/>
<path d="M1945 1779 c-10 -15 3 -25 16 -12 7 7 7 13 1 17 -6 3 -14 1 -17 -5z"/>
<path d="M2097 1783 c-12 -11 -8 -23 8 -23 8 0 15 7 15 15 0 16 -12 20 -23 8z"/>
<path d="M3160 2012 c0 -56 7 -62 71 -62 l40 0 -3 53 -3 52 -52 3 -53 3 0 -49z"/>
<path d="M2345 2020 c-9 -14 1 -25 23 -25 12 0 16 -7 15 -25 -2 -22 -1 -23 8
-7 16 27 7 62 -18 65 -11 2 -24 -2 -28 -8z"/>
<path d="M3540 1950 c-39 -39 -14 -100 42 -100 53 0 79 74 36 104 -30 21 -54
20 -78 -4z m56 -31 c10 -17 -13 -36 -27 -22 -12 12 -4 33 11 33 5 0 12 -5 16
-11z"/>
<path d="M1596 1919 c-68 -53 6 -134 99 -108 89 25 61 129 -35 129 -23 0 -48
-8 -64 -21z"/>
<path d="M2467 1922 c-17 -19 -16 -19 23 -19 32 0 40 3 38 16 -5 23 -41 25
-61 3z"/>
<path d="M3035 1891 c-118 -31 -198 -143 -181 -255 8 -52 46 -128 84 -170 63
-68 175 -85 268 -42 127 59 179 177 139 313 -32 109 -188 186 -310 154z m133
-44 c9 -8 30 -17 46 -21 52 -13 84 -58 91 -131 7 -61 6 -66 -29 -123 -36 -60
-51 -72 -87 -72 -31 0 -33 27 -5 61 32 38 34 90 5 138 -19 31 -23 33 -61 27
-24 -4 -46 -2 -53 4 -14 12 -67 -8 -80 -30 -3 -5 -15 -10 -26 -10 -23 0 -25
29 -5 69 8 15 12 37 9 49 -4 16 3 26 28 42 28 17 45 20 92 17 32 -3 66 -12 75
-20z m-238 -135 c0 -13 -12 -22 -22 -16 -10 6 -1 24 13 24 5 0 9 -4 9 -8z
m200 -37 c10 -13 9 -15 -9 -15 -12 0 -21 6 -21 15 0 8 4 15 9 15 5 0 14 -7 21
-15z m-170 -34 c0 -6 -4 -13 -10 -16 -5 -3 -10 1 -10 9 0 9 5 16 10 16 6 0 10
-4 10 -9z m38 -78 c-5 -25 -28 -28 -28 -4 0 12 6 21 16 21 9 0 14 -7 12 -17z
m120 -56 c2 -12 -3 -17 -17 -17 -12 0 -21 6 -21 13 0 31 32 34 38 4z"/>
<path d="M3077 1834 c-14 -14 -7 -25 13 -22 12 2 21 8 21 13 0 12 -24 18 -34
9z"/>
<path d="M3225 1721 c-7 -12 12 -24 25 -16 11 7 4 25 -10 25 -5 0 -11 -4 -15
-9z"/>
<path d="M2556 1821 c-89 -59 -94 -202 -8 -259 24 -16 24 -15 -2 23 -51 75
-26 174 54 216 44 24 76 24 123 0 28 -14 35 -15 26 -5 -38 46 -141 59 -193 25z"/>
<path d="M2316 1754 c-35 -34 -8 -104 40 -104 25 0 38 10 53 37 29 56 -48 112
-93 67z m49 -54 c-5 -8 -11 -8 -17 -2 -6 6 -7 16 -3 22 5 8 11 8 17 2 6 -6 7
-16 3 -22z"/>
<path d="M2022 1594 c-21 -9 -44 -64 -38 -90 4 -13 24 -36 46 -50 l39 -26 28
20 c43 30 66 60 60 76 -14 36 -103 83 -135 70z"/>
<path d="M2634 1535 c-16 -21 -35 -35 -48 -35 -32 0 -46 -19 -46 -59 0 -75 70
-134 138 -116 25 7 26 8 7 16 -17 7 -15 8 10 7 80 -4 118 68 81 156 -30 73
-99 88 -142 31z m143 -77 c4 -38 1 -48 -22 -74 l-27 -29 21 32 c28 42 26 82
-5 129 l-26 39 27 -26 c19 -19 29 -40 32 -71z m-120 64 c-10 -10 -17 -25 -18
-33 0 -11 -2 -11 -6 -1 -5 12 23 52 35 52 3 0 -2 -8 -11 -18z"/>
<path d="M2302 1549 c-34 -13 -48 -53 -29 -82 33 -50 100 -37 105 21 5 52 -29
78 -76 61z m38 -54 c0 -8 -7 -15 -15 -15 -8 0 -15 7 -15 15 0 8 7 15 15 15 8
0 15 -7 15 -15z"/>
<path d="M2876 1341 c-25 -28 -17 -72 17 -91 24 -13 30 -13 55 0 53 30 33 110
-28 110 -15 0 -35 -9 -44 -19z m59 -32 c10 -15 -1 -23 -20 -15 -9 3 -13 10
-10 16 8 13 22 13 30 -1z"/>
</g>
</svg>
